<svg width="300" height="55" viewBox="0 0 300 55" fill="none" xmlns="http://www.w3.org/2000/svg">
<g clip-path="url(#clip0_5163_2200)">
<path d="M29.836 25.782C29.836 26.141 29.658 26.498 29.3 26.677C26.442 28.288 23.761 29.9 20.903 31.332C20.367 31.691 20.01 31.691 19.474 31.332C16.794 29.721 13.935 28.109 11.255 26.677C10.897 26.498 10.719 26.14 10.719 25.782V8.236C10.719 7.52 10.897 7.52 11.434 7.52H29.121C29.657 7.52 30.014 7.699 30.014 8.236C29.836 14.145 29.836 19.873 29.836 25.782ZM16.972 3.043H23.404C24.119 3.043 24.297 3.402 24.297 3.938C24.297 4.474 24.119 4.833 23.404 4.833H17.151C16.436 4.833 16.258 4.474 16.258 3.938C16.258 3.402 16.436 3.043 16.973 3.043M40.376 21.484C40.376 20.768 40.198 20.409 39.483 20.052C37.16 18.799 35.016 17.545 32.694 16.113C32.158 15.754 31.979 15.397 31.979 14.86V3.402C31.979 1.791 31.621 0.716 30.014 0H10.362C8.933 0.716 8.397 1.791 8.397 3.402V14.861C8.397 15.398 8.219 15.756 7.682 16.114C5.359 17.367 3.037 18.621 0.893 20.053C0.357 20.412 0 20.769 0 21.485V41C0 41.716 0.178 42.075 0.715 42.253C6.789 45.655 13.042 49.235 19.296 52.816C19.832 53.175 20.368 53.175 20.904 52.816C22.691 51.741 24.478 50.846 26.263 49.773C26.978 49.414 27.514 49.414 28.05 49.773C30.73 51.205 36.188 53.989 36.188 53.989C36.188 53.989 36.747 54.223 36.973 54.05C37.199 53.877 37.007 53.202 37.007 53.202C37.007 53.202 35.555 48.161 34.84 45.655C34.696 45.018 34.89 44.556 35.376 44.223C36.805 43.507 38.056 42.612 39.306 41.896C40.021 41.537 40.199 41.18 40.199 40.464C40.377 34.198 40.378 21.486 40.378 21.486L40.376 21.484Z" fill="#0CACF0"/>
<path d="M291.853 47.8092L285.112 36.8392C284.96 36.5912 284.598 36.5952 284.451 36.8462L278.022 47.8032C277.953 47.9212 277.826 47.9932 277.69 47.9932H270.031C269.728 47.9932 269.544 47.6602 269.704 47.4032L278.085 34.0102C278.161 33.8892 278.163 33.7352 278.091 33.6112L270.559 20.7162C270.409 20.4592 270.594 20.1362 270.892 20.1362H277.865C277.997 20.1362 278.121 20.2042 278.191 20.3162L284.448 30.2482C284.6 30.4892 284.951 30.4882 285.101 30.2472L291.301 20.3182C291.371 20.2052 291.495 20.1372 291.628 20.1372H298.799C299.097 20.1372 299.282 20.4602 299.132 20.7172L291.604 33.6152C291.533 33.7372 291.534 33.8892 291.608 34.0102L299.764 47.4082C299.92 47.6652 299.735 47.9942 299.435 47.9942H292.181C292.047 47.9942 291.923 47.9242 291.853 47.8102V47.8092Z" fill="white"/>
<path d="M95.0862 23.3849C95.0862 23.3849 97.9992 21.3639 99.7302 20.6719C102.144 19.5569 104.93 18.9999 107.53 19.1859C111.43 19.5569 114.03 21.9719 114.215 26.0579V47.5739C114.215 47.9999 113.87 48.3449 113.444 48.3449H107.742C107.316 48.3449 106.971 47.9999 106.971 47.5739V27.5449C106.971 25.6879 105.67 24.9449 104 25.1309C100.657 25.1309 95.0852 28.4739 95.0852 28.4739V47.5749C95.0852 48.0009 94.7403 48.3459 94.3143 48.3459H88.4273C88.0013 48.3459 87.6562 48.0009 87.6562 47.5749V8.62989C87.6562 8.20389 88.0013 7.85889 88.4273 7.85889H94.3143C94.7403 7.85889 95.0852 8.20389 95.0852 8.62989V23.3849H95.0862Z" fill="#0CACF0"/>
<path d="M160.273 20.8562C162.873 19.5552 165.844 18.9992 168.816 19.3702C172.345 19.7412 174.944 22.3412 175.131 26.2422V47.5712C175.131 47.9972 174.786 48.3422 174.36 48.3422H168.845C168.419 48.3422 168.074 47.9972 168.074 47.5712V28.0992C168.074 25.8702 166.774 25.1282 164.731 25.3132C162.07 25.3132 157.563 27.7132 156.211 28.4682C155.967 28.6042 155.816 28.8612 155.816 29.1412V47.5712C155.816 47.9972 155.471 48.3422 155.045 48.3422H149.345C148.919 48.3422 148.574 47.9972 148.574 47.5712V20.6992C148.574 20.2732 148.919 19.9282 149.345 19.9282H155.459C155.459 19.9282 155.962 19.9392 155.988 20.3652C156.014 20.7912 155.791 21.2832 155.693 22.0532C155.595 22.8232 155.631 23.6432 155.631 23.6432C155.631 23.6432 158.601 21.4142 160.272 20.8572L160.273 20.8562Z" fill="#0CACF0"/>
<path d="M228.158 41.8172H219.161C218.948 41.8172 218.776 41.6442 218.776 41.4322V31.2462C218.776 31.0332 218.949 30.8612 219.161 30.8612H228.158C230.063 30.8612 231.607 32.4052 231.607 34.3102V38.3702C231.607 40.2752 230.063 41.8192 228.158 41.8192V41.8172ZM230.83 18.7022V21.4762C230.83 23.2742 229.372 24.7322 227.574 24.7322H219.535C219.322 24.7322 219.15 24.5592 219.15 24.3472V15.8322C219.15 15.6192 219.323 15.4472 219.535 15.4472H227.574C229.372 15.4472 230.83 16.9052 230.83 18.7032V18.7022ZM234.193 27.8892C234.193 27.8892 236.577 27.1592 237.641 25.0892C238.706 23.0192 239.926 16.5792 237.383 12.7942C234.84 9.00922 231.157 8.85022 228.95 8.65822C226.742 8.46722 223.828 8.46722 220.826 8.51122C217.824 8.55522 211.193 8.75922 211.193 8.75922C210.767 8.75922 210.422 9.10422 210.422 9.53022V47.3592C210.422 47.7852 210.767 48.1302 211.193 48.1302C211.193 48.1302 216.984 48.2302 221.725 48.3472C226.466 48.4642 231.608 48.1302 231.608 48.1302C231.608 48.1302 236.341 47.8002 238.411 44.4292C240.481 41.0582 240.374 35.3882 239.008 32.1612C237.642 28.9342 234.194 27.8892 234.194 27.8892H234.193Z" fill="white"/>
<path d="M72.6159 27.542H64.4719C64.0459 27.542 63.7009 27.197 63.7009 26.771V14.383C63.7009 13.957 64.0459 13.612 64.4719 13.612H72.6159C75.4519 13.612 78.0209 15.812 78.0209 20.669C78.0209 25.526 75.5829 27.542 72.6159 27.542ZM84.1119 13.927C82.3359 9.69596 79.7239 7.85596 72.9869 7.85596H56.8569C56.4309 7.85596 56.0859 8.20096 56.0859 8.62696V47.572C56.0859 47.998 56.4309 48.343 56.8569 48.343H62.9299C63.3559 48.343 63.7009 47.998 63.7009 47.572V34.641C63.7009 34.211 64.0529 33.864 64.4829 33.87C66.8769 33.906 74.1149 33.968 76.8869 33.471C80.1419 32.888 83.1489 30.262 84.2809 26.697C85.4409 23.043 85.3129 16.788 84.1119 13.927Z" fill="#0CACF0"/>
<path d="M193.527 31.8749C190.916 31.9289 186.896 31.5429 186.896 31.5429C186.39 31.4989 186.133 31.1699 186.126 30.7259C186.114 29.9139 186.165 28.7139 186.532 27.8279C187.139 26.3619 188.446 24.8399 190.719 24.2319C192.844 23.6639 196.507 23.9739 198.025 25.3719C199.258 26.5069 199.695 28.1799 199.147 29.6729C198.6 31.1659 196.137 31.8209 193.526 31.8749H193.527ZM178.817 36.7429C179.58 42.4489 181.941 45.3059 185.345 47.2709C189.065 49.4179 195.698 49.0059 198.719 48.4559C200.999 48.0409 203.032 47.1989 204.102 46.7689C204.47 46.6209 204.732 46.4029 204.671 45.9029L203.999 41.8559C203.934 41.4439 203.545 41.1089 203.14 41.2109C201.154 41.7079 199.099 42.8819 194.138 42.9699C191.45 43.0179 188.852 42.0539 187.533 40.7539C186.551 39.7849 186.252 38.2289 186.148 37.3359C186.095 36.8779 186.453 36.4769 186.914 36.4769C186.914 36.4769 195.476 37.2109 200.273 36.0479C204.395 35.0489 205.717 31.2059 205.595 27.9159C205.453 24.1039 202.783 20.5139 198.715 19.1599C198.715 19.1599 192.581 16.9039 186.537 19.3579C179.232 22.3239 178.06 31.0989 178.815 36.7449L178.817 36.7429Z" fill="#0CACF0"/>
<path d="M131.124 42.9258C127.921 42.9258 124.431 42.6038 124.431 33.6418C124.431 24.6798 128.407 24.6918 131.125 24.6918C133.843 24.6918 137.836 24.3578 137.836 33.6418C137.836 42.9258 134.327 42.9258 131.124 42.9258ZM131.117 48.5748C137.649 48.5748 140.932 46.9608 143.217 43.2768C145.502 39.5928 145.357 33.6418 145.357 33.6418C145.357 33.6418 145.362 27.3268 143.146 23.7268C140.93 20.1268 137.576 18.7378 131.118 18.7378C124.66 18.7378 121.329 20.1268 119.113 23.7268C116.897 27.3268 116.902 33.6418 116.902 33.6418C116.902 33.6418 116.757 39.5928 119.042 43.2768C121.327 46.9608 124.587 48.5748 131.119 48.5748H131.117Z" fill="#0CACF0"/>
<path d="M256.614 42.3048C253.629 42.3048 250.377 42.0048 250.377 33.6538C250.377 25.3028 254.082 25.3138 256.615 25.3138C259.148 25.3138 262.869 25.0028 262.869 33.6538C262.869 42.3048 259.599 42.3048 256.614 42.3048ZM256.606 48.5748C263.138 48.5748 266.421 46.9608 268.706 43.2768C270.991 39.5928 270.846 33.6418 270.846 33.6418C270.846 33.6418 270.851 27.3268 268.635 23.7268C266.419 20.1268 263.065 18.7378 256.607 18.7378C250.149 18.7378 246.818 20.1268 244.602 23.7268C242.386 27.3268 242.391 33.6418 242.391 33.6418C242.391 33.6418 242.246 39.5928 244.531 43.2768C246.816 46.9608 250.076 48.5748 256.608 48.5748H256.606Z" fill="white"/>
<path d="M287.431 6.95819H285.039V5.72119H291.293V6.95819H288.901V14.0072H287.431V6.95819Z" fill="white"/>
<path d="M292.676 5.72119H294.337L295.803 9.76819C295.983 10.2952 296.153 10.8532 296.334 11.3952H296.384C296.568 10.8532 296.724 10.2952 296.906 9.76819L298.341 5.72119H300.002V14.0062H298.656V10.2152C298.656 9.45019 298.772 8.34919 298.842 7.58119H298.792L298.123 9.50619L296.761 13.2272H295.888L294.521 9.50619L293.863 7.58119H293.813C293.883 8.34819 293.999 9.44819 293.999 10.2152V14.0062H292.677V5.72119H292.676Z" fill="white"/>
</g>
<defs>
<clipPath id="clip0_5163_2200">
<rect width="300" height="54.113" fill="white"/>
</clipPath>
</defs>
</svg>
