<svg width="20" height="20" viewBox="0 0 20 20" fill="none" xmlns="http://www.w3.org/2000/svg">
<path d="M5.78353 4.16666C5.78331 4.60869 5.6075 5.03253 5.29478 5.34493C4.98207 5.65734 4.55806 5.83272 4.11603 5.8325C3.674 5.83228 3.25017 5.65647 2.93776 5.34375C2.62536 5.03104 2.44997 4.60703 2.4502 4.165C2.45042 3.72297 2.62622 3.29914 2.93894 2.98673C3.25166 2.67433 3.67567 2.49894 4.1177 2.49916C4.55972 2.49939 4.98356 2.67519 5.29596 2.98791C5.60837 3.30063 5.78375 3.72464 5.78353 4.16666ZM5.83353 7.06666H2.5002V17.5H5.83353V7.06666ZM11.1002 7.06666H7.78353V17.5H11.0669V12.025C11.0669 8.975 15.0419 8.69166 15.0419 12.025V17.5H18.3335V10.8917C18.3335 5.75 12.4502 5.94166 11.0669 8.46666L11.1002 7.06666Z" fill="black"/>
</svg>
